<?xml version="1.0" encoding="UTF-8"?>
<!DOCTYPE svg PUBLIC "-//W3C//DTD SVG 1.1//EN" "http://www.w3.org/Graphics/SVG/1.1/DTD/svg11.dtd">
<!-- Creator: CorelDRAW X8 -->
<svg xmlns="http://www.w3.org/2000/svg" xml:space="preserve" width="150mm" height="40mm" version="1.1" style="shape-rendering:geometricPrecision; text-rendering:geometricPrecision; image-rendering:optimizeQuality; fill-rule:evenodd; clip-rule:evenodd"
viewBox="0 0 15000 4000"
 xmlns:xlink="http://www.w3.org/1999/xlink"
 display="block"
 role="presentation">
 <defs>
  <style type="text/css">
   <![CDATA[
    .str0 {stroke:#8fcb17;stroke-width:50}
    .fil0 {fill:none}
   ]]>
  </style>
 </defs>
 <g id="Capa_x0020_1">
  <metadata id="CorelCorpID_0Corel-Layer"/>
  <path id="YB4LBRok5" class="fil0 str0" d="M13717 -4940c0,1428 -4784,1642 -4736,2300m4736 -2300c0,1428 -447,1482 -447,3019m447 -3019c0,1428 -8835,1088 -9004,3117m9004 -3117l0 0 0 0z"/>
  <path id="DSyakXQG_" class="fil0 str0" d="M14028 2934c0,-1327 -7653,-1599 -7653,-2832m0 0c0,1233 -5166,1604 -5166,2931m5166 -2931c0,1233 -880,1388 -880,2728m880 -2728c0,1226 3375,1292 3375,2619m-3375 -2619l0 0 0 0z"/>
  <path id="FodGdLJc_" class="fil0 str0" d="M-5138 -8924c0,1702 11211,-7 11211,3026m-11211 -3026c0,1702 2654,2005 2654,3124m-2654 -3124c0,1702 -1597,2204 -1597,3323m1597 -3323l0 0 0 0z"/>
 </g>
</svg>
