<svg width="32" height="21" viewBox="0 0 32 21" fill="none" xmlns="http://www.w3.org/2000/svg">
<path d="M2.90095 13.1682C5.5701 15.8218 10.225 19.4999 15.521 19.4999C20.817 19.4999 25.4711 15.8218 28.1402 13.1682C28.8441 12.4684 29.1973 12.1173 29.4215 11.4302C29.5814 10.9399 29.5814 10.0601 29.4215 9.56985C29.1973 8.88271 28.8442 8.53155 28.1402 7.83166C25.4711 5.17812 20.817 1.5 15.521 1.5C10.225 1.5 5.5701 5.17813 2.90095 7.83166C2.19646 8.53204 1.84418 8.88247 1.61995 9.56985C1.46002 10.0601 1.46002 10.9399 1.61995 11.4302C1.84418 12.1176 2.19646 12.4678 2.90095 13.1682Z" stroke="#F6FFE2" stroke-width="3" stroke-linecap="round" stroke-linejoin="round"/>
<path d="M12.5208 10.5C12.5208 12.1569 13.8639 13.5 15.5208 13.5C17.1776 13.5 18.5208 12.1569 18.5208 10.5C18.5208 8.84315 17.1776 7.5 15.5208 7.5C13.8639 7.5 12.5208 8.84315 12.5208 10.5Z" stroke="#F6FFE2" stroke-width="3" stroke-linecap="round" stroke-linejoin="round"/>
</svg>
