<svg width="37" height="37" viewBox="0 0 37 37" fill="none" xmlns="http://www.w3.org/2000/svg">
<path d="M26.2083 30.8333C26.2083 28.2789 22.7572 26.2083 18.5 26.2083C14.2428 26.2083 10.7917 28.2789 10.7917 30.8333M32.375 26.2088C32.375 24.3123 30.4724 22.6824 27.75 21.9687M4.625 26.2088C4.625 24.3123 6.52756 22.6824 9.25 21.9687M27.75 15.7806C28.6962 14.9337 29.2917 13.703 29.2917 12.3333C29.2917 9.77893 27.221 7.70825 24.6667 7.70825C23.4821 7.70825 22.4016 8.15357 21.5833 8.88592M9.25 15.7806C8.3038 14.9337 7.70833 13.703 7.70833 12.3333C7.70833 9.77893 9.77902 7.70825 12.3333 7.70825C13.5179 7.70825 14.5984 8.15357 15.4167 8.88592M18.5 21.5833C15.9457 21.5833 13.875 19.5126 13.875 16.9583C13.875 14.4039 15.9457 12.3333 18.5 12.3333C21.0543 12.3333 23.125 14.4039 23.125 16.9583C23.125 19.5126 21.0543 21.5833 18.5 21.5833Z" stroke="#00022A" stroke-width="3" stroke-linecap="round" stroke-linejoin="round"/>
</svg>
