<svg width="315" height="307" viewBox="0 0 315 307" fill="none" xmlns="http://www.w3.org/2000/svg">
<g clip-path="url(#clip0_217_192)">
<g filter="url(#filter0_iii_217_192)">
<rect y="11" width="300" height="137.41" rx="68.7048" fill="#525252"/>
</g>
<rect x="8.33797" y="19.338" width="283.324" height="120.734" rx="60.3669" stroke="url(#paint0_radial_217_192)" stroke-width="16.6759"/>
<rect x="0.833797" y="11.8338" width="298.332" height="135.742" rx="67.871" stroke="url(#paint1_linear_217_192)" stroke-width="1.66759"/>
<rect x="15.8419" y="26.8424" width="268.316" height="105.725" rx="52.8627" stroke="black" stroke-opacity="0.4" stroke-width="1.66759"/>
<g clip-path="url(#clip1_217_192)">
<g filter="url(#filter1_ii_217_192)">
<path d="M146.242 79.1058C146.242 76.3356 146.73 73.8425 147.708 71.6263C148.686 69.3776 150.022 67.471 151.717 65.9067C153.444 64.3423 155.481 63.1365 157.828 62.2891C160.174 61.4418 162.716 61.0181 165.454 61.0181C168.191 61.0181 170.733 61.4418 173.08 62.2891C175.426 63.1365 177.463 64.3423 179.191 65.9067C180.918 67.471 182.27 69.3776 183.248 71.6263C184.226 73.8425 184.715 76.3356 184.715 79.1058C184.715 81.876 184.226 84.4018 183.248 86.6831C182.27 88.9645 180.918 90.9199 179.191 92.5494C177.463 94.1464 175.426 95.3848 173.08 96.2647C170.733 97.1447 168.191 97.5846 165.454 97.5846C162.716 97.5846 160.174 97.1447 157.828 96.2647C155.481 95.3848 153.444 94.1464 151.717 92.5494C150.022 90.9199 148.686 88.9645 147.708 86.6831C146.73 84.4018 146.242 81.876 146.242 79.1058ZM158.61 79.1058C158.61 80.2465 158.773 81.2894 159.099 82.2345C159.457 83.1796 159.93 83.9944 160.516 84.6788C161.135 85.3632 161.869 85.901 162.716 86.292C163.563 86.6505 164.476 86.8298 165.454 86.8298C166.431 86.8298 167.328 86.6505 168.142 86.292C168.99 85.901 169.723 85.3632 170.342 84.6788C170.962 83.9944 171.434 83.1796 171.76 82.2345C172.118 81.2894 172.298 80.2465 172.298 79.1058C172.298 77.9978 172.118 76.9874 171.76 76.0749C171.434 75.1298 170.962 74.3476 170.342 73.7284C169.723 73.0766 168.99 72.5714 168.142 72.2129C167.328 71.8544 166.431 71.6752 165.454 71.6752C164.476 71.6752 163.563 71.8544 162.716 72.2129C161.869 72.5714 161.135 73.0766 160.516 73.7284C159.93 74.3476 159.457 75.1298 159.099 76.0749C158.773 76.9874 158.61 77.9978 158.61 79.1058ZM202.972 75.3905H213.531V84.8744H203.021V96.6069H191.582V61.9958H214.949V71.7241H202.972V75.3905ZM233.333 75.3905H243.892V84.8744H233.382V96.6069H221.942V61.9958H245.31V71.7241H233.333V75.3905Z" fill="black" fill-opacity="0.4"/>
</g>
</g>
<g filter="url(#filter2_dd_217_192)">
<circle cx="68.7044" cy="79.7048" r="48.3602" fill="url(#paint2_linear_217_192)"/>
<circle cx="68.7044" cy="79.7048" r="44.5247" stroke="url(#paint3_linear_217_192)" stroke-width="7.67093"/>
</g>
<g filter="url(#filter3_iii_217_192)">
<rect x="4" y="168" width="300" height="137.41" rx="68.7048" fill="#525252"/>
</g>
<rect x="12.338" y="176.338" width="283.324" height="120.734" rx="60.3669" stroke="url(#paint4_radial_217_192)" stroke-width="16.6759"/>
<rect x="4.8338" y="168.834" width="298.332" height="135.742" rx="67.871" stroke="url(#paint5_linear_217_192)" stroke-width="1.66759"/>
<rect x="19.8417" y="183.842" width="268.316" height="105.725" rx="52.8627" stroke="black" stroke-opacity="0.4" stroke-width="1.66759"/>
<g clip-path="url(#clip2_217_192)">
<g filter="url(#filter4_dii_217_192)">
<path d="M73.5331 236.105C73.5331 233.335 74.0219 230.842 74.9996 228.626C75.9774 226.377 77.3136 224.471 79.0083 222.906C80.7356 221.342 82.7725 220.136 85.119 219.289C87.4655 218.441 90.0076 218.018 92.7452 218.018C95.4828 218.018 98.0248 218.441 100.371 219.289C102.718 220.136 104.755 221.342 106.482 222.906C108.209 224.471 109.562 226.377 110.54 228.626C111.517 230.842 112.006 233.335 112.006 236.105C112.006 238.876 111.517 241.401 110.54 243.683C109.562 245.964 108.209 247.919 106.482 249.549C104.755 251.146 102.718 252.384 100.371 253.264C98.0248 254.144 95.4828 254.584 92.7452 254.584C90.0076 254.584 87.4655 254.144 85.119 253.264C82.7725 252.384 80.7356 251.146 79.0083 249.549C77.3136 247.919 75.9774 245.964 74.9996 243.683C74.0219 241.401 73.5331 238.876 73.5331 236.105ZM85.9012 236.105C85.9012 237.246 86.0641 238.289 86.39 239.234C86.7485 240.179 87.2211 240.994 87.8077 241.678C88.4269 242.363 89.1602 242.9 90.0076 243.292C90.8549 243.65 91.7675 243.829 92.7452 243.829C93.7229 243.829 94.6191 243.65 95.4339 243.292C96.2812 242.9 97.0145 242.363 97.6338 241.678C98.253 240.994 98.7255 240.179 99.0514 239.234C99.4099 238.289 99.5892 237.246 99.5892 236.105C99.5892 234.997 99.4099 233.987 99.0514 233.074C98.7255 232.129 98.253 231.347 97.6338 230.728C97.0145 230.076 96.2812 229.571 95.4339 229.212C94.6191 228.854 93.7229 228.675 92.7452 228.675C91.7675 228.675 90.8549 228.854 90.0076 229.212C89.1602 229.571 88.4269 230.076 87.8077 230.728C87.2211 231.347 86.7485 232.129 86.39 233.074C86.0641 233.987 85.9012 234.997 85.9012 236.105ZM118.873 218.995H130.459L140.334 236.545H140.529L140.041 218.995H151.089V253.606H139.21L129.628 237.083H129.432L129.921 253.606H118.873V218.995Z" fill="#00FFB2"/>
</g>
</g>
<g filter="url(#filter5_dd_217_192)">
<circle cx="235.295" cy="236.705" r="48.3602" fill="url(#paint6_linear_217_192)"/>
<circle cx="235.295" cy="236.705" r="44.4809" stroke="url(#paint7_linear_217_192)" stroke-width="7.75862"/>
</g>
<mask id="mask0_217_192" style="mask-type:alpha" maskUnits="userSpaceOnUse" x="4" y="167" width="300" height="139">
<rect x="12.338" y="176.337" width="283.324" height="120.734" rx="60.3669" stroke="url(#paint8_radial_217_192)" stroke-width="16.6759"/>
</mask>
<g mask="url(#mask0_217_192)">
<g opacity="0.2" filter="url(#filter6_f_217_192)">
<ellipse cx="113.145" cy="236.621" rx="94.1356" ry="65.9533" fill="#00FFB2"/>
</g>
</g>
</g>
<rect x="0.176726" y="0.176726" width="314.647" height="306.647" rx="1.59054" stroke="#9747FF" stroke-width="0.353453" stroke-dasharray="3.53 1.77"/>
<defs>
<filter id="filter0_iii_217_192" x="0" y="11" width="305.003" height="141.412" filterUnits="userSpaceOnUse" color-interpolation-filters="sRGB">
<feFlood flood-opacity="0" result="BackgroundImageFix"/>
<feBlend mode="normal" in="SourceGraphic" in2="BackgroundImageFix" result="shape"/>
<feColorMatrix in="SourceAlpha" type="matrix" values="0 0 0 0 0 0 0 0 0 0 0 0 0 0 0 0 0 0 127 0" result="hardAlpha"/>
<feMorphology radius="24.0133" operator="erode" in="SourceAlpha" result="effect1_innerShadow_217_192"/>
<feOffset dx="5.00278" dy="4.00222"/>
<feGaussianBlur stdDeviation="7.83769"/>
<feComposite in2="hardAlpha" operator="arithmetic" k2="-1" k3="1"/>
<feColorMatrix type="matrix" values="0 0 0 0 0 0 0 0 0 0 0 0 0 0 0 0 0 0 0.25 0"/>
<feBlend mode="normal" in2="shape" result="effect1_innerShadow_217_192"/>
<feColorMatrix in="SourceAlpha" type="matrix" values="0 0 0 0 0 0 0 0 0 0 0 0 0 0 0 0 0 0 127 0" result="hardAlpha"/>
<feMorphology radius="19.0106" operator="erode" in="SourceAlpha" result="effect2_innerShadow_217_192"/>
<feOffset dx="3.33519" dy="3.33519"/>
<feGaussianBlur stdDeviation="4.58588"/>
<feComposite in2="hardAlpha" operator="arithmetic" k2="-1" k3="1"/>
<feColorMatrix type="matrix" values="0 0 0 0 0 0 0 0 0 0 0 0 0 0 0 0 0 0 0.37 0"/>
<feBlend mode="normal" in2="effect1_innerShadow_217_192" result="effect2_innerShadow_217_192"/>
<feColorMatrix in="SourceAlpha" type="matrix" values="0 0 0 0 0 0 0 0 0 0 0 0 0 0 0 0 0 0 127 0" result="hardAlpha"/>
<feMorphology radius="19.0106" operator="erode" in="SourceAlpha" result="effect3_innerShadow_217_192"/>
<feOffset dx="1.66759" dy="1.66759"/>
<feGaussianBlur stdDeviation="3.33519"/>
<feComposite in2="hardAlpha" operator="arithmetic" k2="-1" k3="1"/>
<feColorMatrix type="matrix" values="0 0 0 0 0 0 0 0 0 0 0 0 0 0 0 0 0 0 0.26 0"/>
<feBlend mode="normal" in2="effect2_innerShadow_217_192" result="effect3_innerShadow_217_192"/>
</filter>
<filter id="filter1_ii_217_192" x="146.242" y="61.0181" width="100.954" height="38.4528" filterUnits="userSpaceOnUse" color-interpolation-filters="sRGB">
<feFlood flood-opacity="0" result="BackgroundImageFix"/>
<feBlend mode="normal" in="SourceGraphic" in2="BackgroundImageFix" result="shape"/>
<feColorMatrix in="SourceAlpha" type="matrix" values="0 0 0 0 0 0 0 0 0 0 0 0 0 0 0 0 0 0 127 0" result="hardAlpha"/>
<feOffset dx="1.88611" dy="1.88611"/>
<feGaussianBlur stdDeviation="1.99089"/>
<feComposite in2="hardAlpha" operator="arithmetic" k2="-1" k3="1"/>
<feColorMatrix type="matrix" values="0 0 0 0 0 0 0 0 0 0 0 0 0 0 0 0 0 0 1 0"/>
<feBlend mode="normal" in2="shape" result="effect1_innerShadow_217_192"/>
<feColorMatrix in="SourceAlpha" type="matrix" values="0 0 0 0 0 0 0 0 0 0 0 0 0 0 0 0 0 0 127 0" result="hardAlpha"/>
<feOffset dx="-1.16732" dy="-1.16732"/>
<feComposite in2="hardAlpha" operator="arithmetic" k2="-1" k3="1"/>
<feColorMatrix type="matrix" values="0 0 0 0 1 0 0 0 0 1 0 0 0 0 1 0 0 0 0.41 0"/>
<feBlend mode="normal" in2="effect1_innerShadow_217_192" result="effect2_innerShadow_217_192"/>
</filter>
<filter id="filter2_dd_217_192" x="6.3364" y="29.677" width="128.071" height="128.071" filterUnits="userSpaceOnUse" color-interpolation-filters="sRGB">
<feFlood flood-opacity="0" result="BackgroundImageFix"/>
<feColorMatrix in="SourceAlpha" type="matrix" values="0 0 0 0 0 0 0 0 0 0 0 0 0 0 0 0 0 0 127 0" result="hardAlpha"/>
<feOffset dx="1.66759" dy="14.0078"/>
<feGaussianBlur stdDeviation="7.83769"/>
<feComposite in2="hardAlpha" operator="out"/>
<feColorMatrix type="matrix" values="0 0 0 0 0 0 0 0 0 0 0 0 0 0 0 0 0 0 0.45 0"/>
<feBlend mode="normal" in2="BackgroundImageFix" result="effect1_dropShadow_217_192"/>
<feColorMatrix in="SourceAlpha" type="matrix" values="0 0 0 0 0 0 0 0 0 0 0 0 0 0 0 0 0 0 127 0" result="hardAlpha"/>
<feOffset dx="3.33519" dy="7.33741"/>
<feGaussianBlur stdDeviation="3.6687"/>
<feComposite in2="hardAlpha" operator="out"/>
<feColorMatrix type="matrix" values="0 0 0 0 0 0 0 0 0 0 0 0 0 0 0 0 0 0 0.55 0"/>
<feBlend mode="normal" in2="effect1_dropShadow_217_192" result="effect2_dropShadow_217_192"/>
<feBlend mode="normal" in="SourceGraphic" in2="effect2_dropShadow_217_192" result="shape"/>
</filter>
<filter id="filter3_iii_217_192" x="4" y="168" width="305.003" height="141.412" filterUnits="userSpaceOnUse" color-interpolation-filters="sRGB">
<feFlood flood-opacity="0" result="BackgroundImageFix"/>
<feBlend mode="normal" in="SourceGraphic" in2="BackgroundImageFix" result="shape"/>
<feColorMatrix in="SourceAlpha" type="matrix" values="0 0 0 0 0 0 0 0 0 0 0 0 0 0 0 0 0 0 127 0" result="hardAlpha"/>
<feMorphology radius="24.0133" operator="erode" in="SourceAlpha" result="effect1_innerShadow_217_192"/>
<feOffset dx="5.00278" dy="4.00222"/>
<feGaussianBlur stdDeviation="7.83769"/>
<feComposite in2="hardAlpha" operator="arithmetic" k2="-1" k3="1"/>
<feColorMatrix type="matrix" values="0 0 0 0 0 0 0 0 0 0 0 0 0 0 0 0 0 0 0.25 0"/>
<feBlend mode="normal" in2="shape" result="effect1_innerShadow_217_192"/>
<feColorMatrix in="SourceAlpha" type="matrix" values="0 0 0 0 0 0 0 0 0 0 0 0 0 0 0 0 0 0 127 0" result="hardAlpha"/>
<feMorphology radius="19.0106" operator="erode" in="SourceAlpha" result="effect2_innerShadow_217_192"/>
<feOffset dx="3.33519" dy="3.33519"/>
<feGaussianBlur stdDeviation="4.58588"/>
<feComposite in2="hardAlpha" operator="arithmetic" k2="-1" k3="1"/>
<feColorMatrix type="matrix" values="0 0 0 0 0 0 0 0 0 0 0 0 0 0 0 0 0 0 0.37 0"/>
<feBlend mode="normal" in2="effect1_innerShadow_217_192" result="effect2_innerShadow_217_192"/>
<feColorMatrix in="SourceAlpha" type="matrix" values="0 0 0 0 0 0 0 0 0 0 0 0 0 0 0 0 0 0 127 0" result="hardAlpha"/>
<feMorphology radius="19.0106" operator="erode" in="SourceAlpha" result="effect3_innerShadow_217_192"/>
<feOffset dx="1.66759" dy="1.66759"/>
<feGaussianBlur stdDeviation="3.33519"/>
<feComposite in2="hardAlpha" operator="arithmetic" k2="-1" k3="1"/>
<feColorMatrix type="matrix" values="0 0 0 0 0 0 0 0 0 0 0 0 0 0 0 0 0 0 0.26 0"/>
<feBlend mode="normal" in2="effect2_innerShadow_217_192" result="effect3_innerShadow_217_192"/>
</filter>
<filter id="filter4_dii_217_192" x="49.5197" y="194.671" width="125.582" height="84.5933" filterUnits="userSpaceOnUse" color-interpolation-filters="sRGB">
<feFlood flood-opacity="0" result="BackgroundImageFix"/>
<feColorMatrix in="SourceAlpha" type="matrix" values="0 0 0 0 0 0 0 0 0 0 0 0 0 0 0 0 0 0 127 0" result="hardAlpha"/>
<feOffset dy="0.667037"/>
<feGaussianBlur stdDeviation="12.0067"/>
<feComposite in2="hardAlpha" operator="out"/>
<feColorMatrix type="matrix" values="0 0 0 0 0 0 0 0 0 1 0 0 0 0 0.698039 0 0 0 0.4 0"/>
<feBlend mode="normal" in2="BackgroundImageFix" result="effect1_dropShadow_217_192"/>
<feBlend mode="normal" in="SourceGraphic" in2="effect1_dropShadow_217_192" result="shape"/>
<feColorMatrix in="SourceAlpha" type="matrix" values="0 0 0 0 0 0 0 0 0 0 0 0 0 0 0 0 0 0 127 0" result="hardAlpha"/>
<feOffset dx="1.88611" dy="1.88611"/>
<feGaussianBlur stdDeviation="1.99089"/>
<feComposite in2="hardAlpha" operator="arithmetic" k2="-1" k3="1"/>
<feColorMatrix type="matrix" values="0 0 0 0 0 0 0 0 0 0 0 0 0 0 0 0 0 0 0.3 0"/>
<feBlend mode="normal" in2="shape" result="effect2_innerShadow_217_192"/>
<feColorMatrix in="SourceAlpha" type="matrix" values="0 0 0 0 0 0 0 0 0 0 0 0 0 0 0 0 0 0 127 0" result="hardAlpha"/>
<feOffset dx="-1.16732" dy="-1.16732"/>
<feComposite in2="hardAlpha" operator="arithmetic" k2="-1" k3="1"/>
<feColorMatrix type="matrix" values="0 0 0 0 1 0 0 0 0 1 0 0 0 0 1 0 0 0 0.41 0"/>
<feBlend mode="normal" in2="effect2_innerShadow_217_192" result="effect3_innerShadow_217_192"/>
</filter>
<filter id="filter5_dd_217_192" x="172.927" y="186.677" width="128.071" height="128.071" filterUnits="userSpaceOnUse" color-interpolation-filters="sRGB">
<feFlood flood-opacity="0" result="BackgroundImageFix"/>
<feColorMatrix in="SourceAlpha" type="matrix" values="0 0 0 0 0 0 0 0 0 0 0 0 0 0 0 0 0 0 127 0" result="hardAlpha"/>
<feOffset dx="1.66759" dy="14.0078"/>
<feGaussianBlur stdDeviation="7.83769"/>
<feComposite in2="hardAlpha" operator="out"/>
<feColorMatrix type="matrix" values="0 0 0 0 0 0 0 0 0 0 0 0 0 0 0 0 0 0 0.45 0"/>
<feBlend mode="normal" in2="BackgroundImageFix" result="effect1_dropShadow_217_192"/>
<feColorMatrix in="SourceAlpha" type="matrix" values="0 0 0 0 0 0 0 0 0 0 0 0 0 0 0 0 0 0 127 0" result="hardAlpha"/>
<feOffset dx="3.33519" dy="7.33741"/>
<feGaussianBlur stdDeviation="3.6687"/>
<feComposite in2="hardAlpha" operator="out"/>
<feColorMatrix type="matrix" values="0 0 0 0 0 0 0 0 0 0 0 0 0 0 0 0 0 0 0.55 0"/>
<feBlend mode="normal" in2="effect1_dropShadow_217_192" result="effect2_dropShadow_217_192"/>
<feBlend mode="normal" in="SourceGraphic" in2="effect2_dropShadow_217_192" result="shape"/>
</filter>
<filter id="filter6_f_217_192" x="-5.00425" y="146.654" width="236.298" height="179.933" filterUnits="userSpaceOnUse" color-interpolation-filters="sRGB">
<feFlood flood-opacity="0" result="BackgroundImageFix"/>
<feBlend mode="normal" in="SourceGraphic" in2="BackgroundImageFix" result="shape"/>
<feGaussianBlur stdDeviation="12.0067" result="effect1_foregroundBlur_217_192"/>
</filter>
<radialGradient id="paint0_radial_217_192" cx="0" cy="0" r="1" gradientTransform="matrix(-72.1875 -160.484 386.37 -135.491 150 164.034)" gradientUnits="userSpaceOnUse">
<stop stop-color="#EDEDED"/>
<stop offset="0.328125" stop-color="#E4E4E4"/>
<stop offset="0.447917" stop-color="#D5D5D5"/>
<stop offset="0.557292" stop-color="#A2A2A2"/>
<stop offset="0.6875" stop-color="#AFAFAF"/>
<stop offset="1" stop-color="#686868"/>
</radialGradient>
<linearGradient id="paint1_linear_217_192" x1="43.4766" y1="11" x2="79.3203" y2="127.698" gradientUnits="userSpaceOnUse">
<stop stop-opacity="0.2"/>
<stop offset="1" stop-color="white"/>
</linearGradient>
<linearGradient id="paint2_linear_217_192" x1="50.2868" y1="39.254" x2="87.7999" y2="122.528" gradientUnits="userSpaceOnUse">
<stop stop-color="#A7A7A7"/>
<stop offset="1" stop-color="white"/>
</linearGradient>
<linearGradient id="paint3_linear_217_192" x1="37.0669" y1="39.028" x2="89.9467" y2="123.319" gradientUnits="userSpaceOnUse">
<stop stop-color="white"/>
<stop offset="1" stop-color="#A5A5A5"/>
</linearGradient>
<radialGradient id="paint4_radial_217_192" cx="0" cy="0" r="1" gradientTransform="matrix(-72.1875 -160.484 386.37 -135.491 154 321.034)" gradientUnits="userSpaceOnUse">
<stop stop-color="#EDEDED"/>
<stop offset="0.328125" stop-color="#E4E4E4"/>
<stop offset="0.447917" stop-color="#D5D5D5"/>
<stop offset="0.557292" stop-color="#A2A2A2"/>
<stop offset="0.6875" stop-color="#AFAFAF"/>
<stop offset="1" stop-color="#686868"/>
</radialGradient>
<linearGradient id="paint5_linear_217_192" x1="47.4766" y1="168" x2="83.3203" y2="284.698" gradientUnits="userSpaceOnUse">
<stop stop-opacity="0.2"/>
<stop offset="1" stop-color="white"/>
</linearGradient>
<linearGradient id="paint6_linear_217_192" x1="216.877" y1="196.254" x2="254.39" y2="279.528" gradientUnits="userSpaceOnUse">
<stop stop-color="#A7A7A7"/>
<stop offset="1" stop-color="white"/>
</linearGradient>
<linearGradient id="paint7_linear_217_192" x1="203.657" y1="196.028" x2="256.537" y2="280.319" gradientUnits="userSpaceOnUse">
<stop stop-color="white"/>
<stop offset="1" stop-color="#A5A5A5"/>
</linearGradient>
<radialGradient id="paint8_radial_217_192" cx="0" cy="0" r="1" gradientTransform="matrix(-72.1875 -160.484 386.37 -135.491 154 321.033)" gradientUnits="userSpaceOnUse">
<stop stop-color="#EDEDED"/>
<stop offset="0.328125" stop-color="#E4E4E4"/>
<stop offset="0.447917" stop-color="#D5D5D5"/>
<stop offset="0.557292" stop-color="#A2A2A2"/>
<stop offset="0.6875" stop-color="#AFAFAF"/>
<stop offset="1" stop-color="#686868"/>
</radialGradient>
<clipPath id="clip0_217_192">
<rect width="315" height="307" rx="1.76726" fill="white"/>
</clipPath>
<clipPath id="clip1_217_192">
<rect x="16.6757" y="27.6761" width="266.648" height="104.058" rx="52.0289" fill="white"/>
</clipPath>
<clipPath id="clip2_217_192">
<rect x="20.6755" y="184.676" width="266.648" height="104.058" rx="52.0289" fill="white"/>
</clipPath>
</defs>
</svg>
