<?xml version="1.0" encoding="UTF-8"?>
<!DOCTYPE svg PUBLIC "-//W3C//DTD SVG 1.1//EN" "http://www.w3.org/Graphics/SVG/1.1/DTD/svg11.dtd">
<!-- Creator: CorelDRAW X8 -->
<svg xmlns="http://www.w3.org/2000/svg" xml:space="preserve" width="320mm" height="90mm" version="1.1" style="shape-rendering:geometricPrecision; text-rendering:geometricPrecision; image-rendering:optimizeQuality; fill-rule:evenodd; clip-rule:evenodd"
viewBox="0 0 32000 9000"
 xmlns:xlink="http://www.w3.org/1999/xlink">
 <defs>
  <style type="text/css">
   <![CDATA[
    .fil0 {fill:none;fill-rule:nonzero}
    .fil3 {fill:#2B2A29;fill-rule:nonzero}
    .fil1 {fill:black;fill-rule:nonzero}
    .fil2 {fill:#ee722f;fill-rule:nonzero}
   ]]>
  </style>
 </defs>
 <g id="Capa_x0020_1">
  <metadata id="CorelCorpID_0Corel-Layer"/>
  <path class="fil0" d="M-6133 -13742c1,-1 3,-3 4,-4"/>
  <path class="fil1" d="M-7150 -15504c-438,115 -754,496 -785,947 -32,451 228,872 646,1047 417,174 899,63 1198,-277 299,-340 347,-832 121,-1224 -69,-119 -42,-271 64,-360 105,-88 259,-88 365,0 106,89 133,241 64,360 -108,187 -158,413 -137,632 22,218 113,428 258,592 144,164 342,282 555,331 212,49 441,30 643,-54 202,-85 377,-234 491,-420 115,-186 170,-409 155,-627 -15,-218 -100,-431 -240,-599 -141,-169 -337,-293 -545,-348 -149,-39 -276,-136 -353,-269 -77,-133 -97,-292 -57,-440 118,-429 -46,-886 -410,-1141 -364,-256 -849,-256 -1213,0 -364,255 -528,712 -411,1141 41,148 21,307 -56,440 -77,133 -204,230 -353,269z"/>
  <path class="fil2" d="M-14601 -12772c477,-275 641,-886 365,-1362 -275,-477 -885,-641 -1362,-365 -477,275 -640,885 -365,1362 275,477 886,640 1362,365z"/>
  <path class="fil2" d="M-13504 -10872c477,-275 640,-886 365,-1363 -275,-476 -886,-640 -1362,-365 -477,275 -641,886 -366,1363 276,476 886,640 1363,365z"/>
  <path class="fil2" d="M-12407 -12772c476,-275 640,-886 365,-1362 -275,-477 -886,-641 -1363,-365 -476,275 -640,885 -365,1362 275,477 886,640 1363,365z"/>
  <path class="fil0" d="M510 -13742c1,-1 3,-3 4,-4"/>
  <path class="fil1" d="M-507 -15504c149,-39 276,-136 353,-269 76,-133 97,-292 56,-440 -117,-429 47,-886 411,-1141 364,-256 849,-256 1213,0 364,255 528,712 410,1141 -40,148 -20,307 57,440 77,133 204,230 353,269 187,49 364,154 499,296 135,142 228,323 267,515 39,191 23,394 -45,578 -68,183 -189,347 -344,466 -155,120 -344,195 -539,215 -194,19 -395,-17 -570,-103 -176,-86 -327,-222 -430,-389 -104,-167 -160,-364 -160,-557 0,-58 -47,-105 -105,-105 -58,0 -105,47 -105,105 0,547 -419,1004 -964,1050 -546,47 -1036,-332 -1129,-871 -93,-540 242,-1061 772,-1200z"/>
  <path class="fil0" d="M6399 -13742c2,-1 3,-3 5,-4"/>
  <path class="fil1" d="M5382 -15504c149,-39 276,-136 353,-269 77,-133 97,-292 57,-440 -118,-429 47,-886 410,-1141 364,-256 849,-256 1213,0 364,255 528,712 411,1141 -41,148 -20,307 57,440 77,133 204,230 353,269 187,49 363,154 498,296 136,142 229,323 268,515 39,191 23,394 -45,578 -69,183 -189,347 -344,466 -155,120 -344,195 -539,215 -195,19 -395,-17 -571,-103 -175,-86 -326,-222 -430,-389 -103,-167 -159,-364 -159,-557 0,-58 -47,-105 -105,-105 -58,0 -105,47 -105,105 0,547 -419,1004 -965,1050 -545,47 -1036,-332 -1129,-871 -93,-540 242,-1061 772,-1200zm1432 497c63,-295 294,-526 589,-589l23 -5 -23 -5c-295,-63 -526,-294 -589,-589l-5 -23 -5 23c-63,295 -294,526 -589,589l-23 5 23 5c295,63 526,294 589,589l5 23 5 -23z"/>
  <path class="fil2" d="M-18948 -110c-437,114 -752,494 -783,945 -32,450 228,870 644,1044 417,174 898,63 1196,-276 298,-339 347,-830 121,-1221 -69,-120 -42,-271 63,-360 106,-88 260,-88 365,0 106,89 132,240 63,360 -107,186 -157,412 -135,630 21,218 112,427 257,591 144,163 340,281 553,330 212,49 441,30 642,-54 202,-84 376,-233 490,-419 115,-185 170,-408 155,-625 -15,-218 -100,-431 -240,-599 -140,-168 -336,-292 -544,-346 -148,-39 -275,-136 -352,-269 -77,-133 -97,-291 -56,-439 117,-428 -47,-884 -410,-1139 -363,-255 -847,-255 -1210,0 -364,255 -528,711 -410,1139 40,148 20,306 -57,439 -77,133 -203,230 -352,269z"/>
  <g id="_1215631875520">
   <path class="fil3" d="M9170 6488l786 0 272 -771 1334 0 277 771 811 0 -1284 -3525 -907 0 -1289 3525zm1254 -1380l463 -1340 474 1340 -937 0zm3419 1410c388,0 620,-151 781,-353l60 323 625 0 0 -2589 -710 0 0 1360c0,443 -197,675 -559,675 -333,0 -504,-222 -504,-655l0 -1380 -710 0 0 1435c0,887 474,1184 1017,1184zm3077 0c373,0 630,-171 796,-393l70 363 620 0 0 -3525 -710 0 0 1259c-161,-207 -418,-353 -781,-353 -690,0 -1198,519 -1198,1319 0,821 508,1330 1203,1330l0 0zm156 -579c-387,0 -634,-292 -634,-746 0,-453 247,-745 634,-745 383,0 630,297 630,750 0,449 -247,741 -630,741l0 0zm2700 579c403,0 664,-166 846,-443l0 15c0,231 126,398 478,398l363 0 0 -600 -86 0c-111,0 -161,-25 -161,-161l0 -916c0,-620 -418,-942 -1143,-942 -685,0 -1148,332 -1199,831l685 0c30,-191 212,-312 484,-312 307,0 473,146 473,382l0 126 -514 0c-775,0 -1188,313 -1188,861 0,494 403,761 962,761l0 0zm136 -514c-237,0 -383,-116 -383,-302 0,-222 161,-332 463,-332l524 0 0 50c0,353 -232,584 -604,584l0 0zm3036 514c705,0 1174,-388 1274,-1007l-740 0c-55,262 -237,428 -519,428 -377,0 -609,-302 -609,-746 0,-438 237,-745 609,-745 277,0 454,161 514,418l740 0c-100,-614 -539,-997 -1244,-997 -820,0 -1344,524 -1344,1324 0,816 498,1325 1319,1325zm1662 -30l710 0 0 -2589 -710 0 0 2589zm353 -2891c221,0 387,-166 387,-383 0,-221 -166,-382 -387,-382 -222,0 -393,161 -393,382 0,217 171,383 393,383l0 0zm1807 2891l580 0 0 -600 -353 0c-186,0 -257,-75 -257,-256l0 -1134 610 0 0 -599 -610 0 0 -725 -710 0 0 725 -428 0 0 599 428 0 0 1249c0,494 247,741 740,741zm967 1007l690 0c403,0 534,-212 695,-640l1148 -2956 -760 0 -619 1843 -625 -1843 -755 0 992 2604 -66 171c-65,176 -126,222 -307,222l-393 0 0 599z"/>
   <path class="fil2" d="M4532 7806l-193 0c-1,-203 -82,-398 -227,-540 -144,-143 -340,-222 -543,-221l0 -193c203,0 397,-82 540,-227 143,-144 222,-340 221,-543l193 0c1,203 82,398 227,541 144,142 340,221 543,220l0 193c-203,1 -398,82 -540,227 -143,145 -222,340 -221,543zm-217 -3326l218 0c202,1513 1348,2469 2960,2469l0 -1922c-1353,-155 -2255,-1461 -2331,-3374l-1475 0c-77,1913 -979,3219 -2332,3374l0 1922c1613,0 2759,-956 2960,-2469z"/>
  </g>
 </g>
</svg>
