<?xml version="1.0" encoding="UTF-8"?>
<!DOCTYPE svg PUBLIC "-//W3C//DTD SVG 1.1//EN" "http://www.w3.org/Graphics/SVG/1.1/DTD/svg11.dtd">
<!-- Creator: CorelDRAW X8 -->
<svg xmlns="http://www.w3.org/2000/svg" xml:space="preserve" width="220mm" height="50mm" version="1.1" style="shape-rendering:geometricPrecision; text-rendering:geometricPrecision; image-rendering:optimizeQuality; fill-rule:evenodd; clip-rule:evenodd"
viewBox="0 0 22000 5000"
 xmlns:xlink="http://www.w3.org/1999/xlink">
 <defs>
  <style type="text/css">
   <![CDATA[
    .fil0 {fill:#2B2A29;fill-rule:nonzero}
   ]]>
  </style>
 </defs>
 <g id="Capa_x0020_1">
  <metadata id="CorelCorpID_0Corel-Layer"/>
  <path class="fil0" d="M450 3825l786 0 272 -771 1334 0 277 771 811 0 -1284 -3525 -907 0 -1289 3525zm1254 -1380l463 -1340 474 1340 -937 0zm3419 1410c388,0 620,-151 781,-353l60 323 625 0 0 -2589 -710 0 0 1360c0,443 -197,675 -559,675 -333,0 -504,-222 -504,-655l0 -1380 -710 0 0 1435c0,887 474,1184 1017,1184zm3077 0c373,0 630,-171 796,-393l70 363 620 0 0 -3525 -710 0 0 1259c-161,-207 -418,-353 -781,-353 -690,0 -1198,519 -1198,1319 0,821 508,1330 1203,1330l0 0zm156 -579c-387,0 -634,-292 -634,-746 0,-453 247,-745 634,-745 383,0 630,297 630,750 0,449 -247,741 -630,741l0 0zm2700 579c403,0 664,-166 846,-443l0 15c0,231 126,398 478,398l363 0 0 -600 -86 0c-111,0 -161,-25 -161,-161l0 -916c0,-620 -418,-942 -1143,-942 -685,0 -1148,332 -1199,831l685 0c30,-191 212,-312 484,-312 307,0 473,146 473,382l0 126 -514 0c-775,0 -1188,313 -1188,861 0,494 403,761 962,761l0 0zm136 -514c-237,0 -383,-116 -383,-302 0,-222 161,-332 463,-332l524 0 0 50c0,353 -232,584 -604,584l0 0zm3036 514c705,0 1174,-388 1274,-1007l-740 0c-55,262 -237,428 -519,428 -377,0 -609,-302 -609,-746 0,-438 237,-745 609,-745 277,0 454,161 514,418l740 0c-100,-614 -539,-997 -1244,-997 -820,0 -1344,524 -1344,1324 0,816 498,1325 1319,1325zm1662 -30l710 0 0 -2589 -710 0 0 2589zm353 -2891c221,0 387,-166 387,-383 0,-221 -166,-382 -387,-382 -222,0 -393,161 -393,382 0,217 171,383 393,383l0 0zm1807 2891l580 0 0 -600 -353 0c-186,0 -257,-75 -257,-256l0 -1134 610 0 0 -599 -610 0 0 -725 -710 0 0 725 -428 0 0 599 428 0 0 1249c0,494 247,741 740,741zm967 1007l690 0c403,0 534,-212 695,-640l1148 -2956 -760 0 -619 1843 -625 -1843 -755 0 992 2604 -66 171c-65,176 -126,222 -307,222l-393 0 0 599z"/>
 </g>
</svg>
