<?xml version="1.0" encoding="UTF-8"?>
<!DOCTYPE svg PUBLIC "-//W3C//DTD SVG 1.1//EN" "http://www.w3.org/Graphics/SVG/1.1/DTD/svg11.dtd">
<!-- Creator: CorelDRAW X8 -->
<svg xmlns="http://www.w3.org/2000/svg" xml:space="preserve" width="300mm" height="100mm" version="1.1" style="shape-rendering:geometricPrecision; text-rendering:geometricPrecision; image-rendering:optimizeQuality; fill-rule:evenodd; clip-rule:evenodd"
viewBox="0 0 30000 10000"
 xmlns:xlink="http://www.w3.org/1999/xlink">
 <defs>
  <style type="text/css">
   <![CDATA[
    .fil0 {fill:black}
   ]]>
  </style>
 </defs>
 <g id="Capa_x0020_1">
  <metadata id="CorelCorpID_0Corel-Layer"/>
  <g id="_2579307243520">
   <path class="fil0" d="M588 825l801 755c80,80 120,119 120,279l0 6163c0,159 0,199 -120,279l-801 755 0 40 4444 0c1841,0 3042,-835 3042,-2307 0,-1272 -1121,-1988 -2722,-2028l0 -39c1481,-120 2442,-796 2442,-1989 0,-1272 -1161,-1908 -2963,-1908l-4243 0zm3603 4056c1121,0 1561,676 1561,1948 0,1273 -440,1989 -1521,1989l-320 0c-241,0 -281,0 -281,-239l0 -3698 561 0zm-561 -3579c0,-199 40,-239 201,-239l400 0c881,0 1321,716 1321,1750 0,1153 -480,1869 -1361,1869l-561 0 0 -3380z"/>
   <path class="fil0" d="M11757 3409c601,0 961,517 961,2784 0,2267 -360,2784 -961,2784 -600,0 -961,-517 -961,-2784 0,-2306 361,-2784 961,-2784zm0 5766c1882,0 3123,-1034 3123,-2982 0,-1988 -1241,-3022 -3123,-3022 -1881,0 -3122,1034 -3122,2982 0,2028 1241,3022 3122,3022z"/>
   <path class="fil0" d="M19083 3250l-1441 0 0 -1988 -40 0 -1641 1829c-120,120 -160,120 -360,120l-521 0 0 238 641 0 0 4056c0,1074 520,1591 1521,1591 1121,0 1601,-676 1721,-1352l-40 0c-120,238 -360,437 -680,437 -401,0 -641,-318 -641,-835l0 -3937 1441 0 40 -159z"/>
   <path class="fil0" d="M23087 3250l-1441 0 0 -1988 -40 0 -1642 1829c-120,120 -160,120 -360,120l-521 0 0 238 641 0 0 4056c0,1074 520,1591 1521,1591 1121,0 1602,-676 1722,-1352l-40 0c-120,238 -361,437 -681,437 -400,0 -640,-318 -640,-835l0 -3937 1441 0 40 -159z"/>
   <path class="fil0" d="M26289 3409c601,0 961,517 961,2784 0,2267 -360,2784 -961,2784 -600,0 -960,-517 -960,-2784 0,-2306 360,-2784 960,-2784zm0 5766c1882,0 3123,-1034 3123,-2982 0,-1988 -1241,-3022 -3123,-3022 -1881,0 -3122,1034 -3122,2982 0,2028 1241,3022 3122,3022z"/>
  </g>
 </g>
</svg>
