<?xml version="1.0" encoding="UTF-8"?>
<!DOCTYPE svg PUBLIC "-//W3C//DTD SVG 1.1//EN" "http://www.w3.org/Graphics/SVG/1.1/DTD/svg11.dtd">
<!-- Creator: CorelDRAW X8 -->
<svg xmlns="http://www.w3.org/2000/svg" xml:space="preserve" width="300mm" height="100mm" version="1.1" style="shape-rendering:geometricPrecision; text-rendering:geometricPrecision; image-rendering:optimizeQuality; fill-rule:evenodd; clip-rule:evenodd"
viewBox="0 0 30000 10000"
 xmlns:xlink="http://www.w3.org/1999/xlink">
 <defs>
  <style type="text/css">
   <![CDATA[
    .fil0 {fill:black}
   ]]>
  </style>
 </defs>
 <g id="Capa_x0020_1">
  <metadata id="CorelCorpID_0Corel-Layer"/>
  <g id="_2614620246640">
   <path class="fil0" d="M29143 7854c0,-428 -304,-743 -721,-743 -417,0 -722,315 -722,743 0,428 305,740 722,740 417,0 721,-312 721,-740zm-914 36l0 486 -156 0 0 -1070 392 0c229,0 330,102 330,294 0,120 -80,214 -185,229l0 3c91,15 123,98 145,243 15,98 33,261 65,301l-184 0c-44,-101 -40,-243 -73,-362 -25,-91 -76,-124 -178,-124l-152 0 0 0 -4 0 0 0zm196 -138c153,0 196,-79 196,-152 0,-83 -43,-152 -196,-152l-196 0 0 304 196 0 0 0zm-899 102c0,-529 421,-885 896,-885 475,0 892,356 892,885 0,526 -417,885 -892,885 -475,0 -896,-359 -896,-885z"/>
   <path class="fil0" d="M24429 8583l-1030 -1157 -1023 1157 -2150 0 2099 -2361 -2099 -2361 2216 0 1040 1146 1005 -1146 2139 0 -2092 2354 2121 2368 -2226 0zm-8330 0l0 -7438 4127 0 0 1657 -2379 0 0 1059 2379 0 0 1596 -2379 0 0 1465 2379 0 0 1661 -4127 0z"/>
   <path class="fil0" d="M13549 1145l0 3046 -18 0c-384,-446 -866,-598 -1425,-598 -1146,0 -2009,780 -2310,1806 -348,-1132 -1237,-1828 -2557,-1828 -1073,0 -1918,482 -2360,1266l0 -976 -2216 0 0 -1059 2419 0 0 -1657 -4396 0 0 7438 1977 0 0 -3126 1969 0c-62,239 -91,482 -91,725 0,4 0,7 0,11 0,1552 1186,2640 2698,2640 1270,0 2111,-598 2553,-1686l-1693 0c-229,326 -403,424 -860,424 -533,0 -990,-464 -990,-1012l3449 0c149,1233 1110,2296 2426,2296 570,0 1088,-279 1407,-751l18 0 0 479 1741 0 0 -7438 -1741 0 0 0 0 0zm-7245 4334c112,-472 478,-780 935,-780 504,0 853,297 943,780l-1878 0zm6190 1973c-642,0 -1041,-599 -1041,-1223 0,-667 345,-1309 1041,-1309 718,0 1005,642 1005,1309 0,631 -301,1223 -1005,1223z"/>
  </g>
 </g>
</svg>
