<?xml version="1.0" encoding="UTF-8"?>
<!DOCTYPE svg PUBLIC "-//W3C//DTD SVG 1.1//EN" "http://www.w3.org/Graphics/SVG/1.1/DTD/svg11.dtd">
<!-- Creator: CorelDRAW X8 -->
<svg xmlns="http://www.w3.org/2000/svg" xml:space="preserve" width="300mm" height="100mm" version="1.1" style="shape-rendering:geometricPrecision; text-rendering:geometricPrecision; image-rendering:optimizeQuality; fill-rule:evenodd; clip-rule:evenodd"
viewBox="0 0 30000 10000"
 xmlns:xlink="http://www.w3.org/1999/xlink">
 <defs>
  <style type="text/css">
   <![CDATA[
    .fil0 {fill:black}
   ]]>
  </style>
 </defs>
 <g id="Capa_x0020_1">
  <metadata id="CorelCorpID_0Corel-Layer"/>
  <g id="_2614619017248">
   <path class="fil0" d="M26970 6234c-557,0 -1027,-371 -1169,-885l3084 0 426 -662 -3510 0c142,-510 612,-885 1169,-885l2115 0 430 -659 -2596 0c-1034,0 -1875,841 -1875,1875 0,1038 841,1875 1875,1875l2228 0 422 -659 -2599 0 0 0z"/>
   <path class="fil0" d="M18142 6893c-1034,0 -1875,-837 -1875,-1875 0,-1034 841,-1875 1875,-1875l2592 0 -422 659 -2123 0c-670,0 -1216,546 -1216,1216 0,674 546,1216 1216,1216l2603 0 -426 659 -2224 0z"/>
   <path class="fil0" d="M4439 6234c670,0 1216,-542 1216,-1216 0,-670 -546,-1216 -1216,-1216l-2086 0c-670,0 -1213,546 -1213,1216 0,674 543,1216 1213,1216l2086 0 0 0zm-2134 659c-1033,0 -1874,-837 -1874,-1875 0,-1034 841,-1875 1874,-1875l2181 0c1038,0 1879,841 1879,1875 0,1038 -841,1875 -1879,1875l-2181 0z"/>
   <path class="fil0" d="M9903 5677c703,0 1271,-564 1271,-1267 0,-699 -568,-1267 -1271,-1267l-3156 0 0 3750 721 0 0 -3091 2388 0c335,0 604,273 604,608 0,335 -269,608 -604,608l-2035 0 2155 1875 1049 0 -1449 -1216 327 0 0 0z"/>
   <path class="fil0" d="M21844 6231l0 -3088 -721 0 0 3393c0,91 37,182 106,252 66,69 160,105 262,105l3291 0 426 -659 -3364 0 0 -3z"/>
   <path class="fil0" d="M13009 5572l1925 0 -1015 -1639 -1871 2960 -849 0 2272 -3557c98,-142 262,-229 448,-229 175,0 338,84 437,222l2282 3564 -852 0 -400 -659 -1951 0 -426 -662 0 0z"/>
  </g>
 </g>
</svg>
