<?xml version="1.0" encoding="UTF-8"?>
<!DOCTYPE svg PUBLIC "-//W3C//DTD SVG 1.1//EN" "http://www.w3.org/Graphics/SVG/1.1/DTD/svg11.dtd">
<!-- Creator: CorelDRAW X8 -->
<svg xmlns="http://www.w3.org/2000/svg" xml:space="preserve" width="300mm" height="100mm" version="1.1" style="shape-rendering:geometricPrecision; text-rendering:geometricPrecision; image-rendering:optimizeQuality; fill-rule:evenodd; clip-rule:evenodd"
viewBox="0 0 30000 10000"
 xmlns:xlink="http://www.w3.org/1999/xlink">
 <defs>
  <style type="text/css">
   <![CDATA[
    .fil0 {fill:black}
   ]]>
  </style>
 </defs>
 <g id="Capa_x0020_1">
  <metadata id="CorelCorpID_0Corel-Layer"/>
  <path class="fil0" d="M10922 6898c-1229,0 -1934,-709 -1934,-1934 0,-1197 734,-1906 1995,-1906 1209,0 1914,725 1914,1958 0,1201 -717,1882 -1975,1882zm49 -4453c-2220,0 -3606,980 -3606,2555 0,1547 1370,2518 3537,2518 2309,0 3647,-959 3647,-2599 0,-1474 -1447,-2474 -3578,-2474zm9327 3063l17 -1910c0,-250 -133,-339 -504,-339l-439 0 0 -592 2784 0 0 592 -363 0c-370,0 -503,89 -503,339l0 3844 -1088 -8 -3530 -3341 0 2426c0,242 129,334 504,334l483 0 0 589 -2893 0 0 -589 480 0c375,0 503,-92 503,-334l0 -2921c0,-250 -128,-339 -503,-339l-480 0 0 -592 2502 0 3030 2841zm-14876 -2877l762 0 0 1716 -705 0c-61,-342 -278,-475 -472,-656 -354,-323 -1120,-597 -1764,-597 -830,0 -1531,258 -1531,641 0,1051 4754,213 4754,2204 0,1035 -1019,1616 -2849,1616 -632,0 -1591,-194 -2155,-496 -178,-101 -254,97 -286,346l-782 0 0 -1776 705 0c157,451 371,544 568,725 343,314 1161,544 1910,536 1128,-12 1515,-258 1515,-617 0,-358 -383,-443 -1620,-636l-1051 -170c-1185,-181 -2047,-447 -2047,-1390 0,-983 1092,-1595 2816,-1595 730,0 1338,96 1918,427 165,105 314,117 314,-278l0 0zm21202 1857l915 -975c52,-72 77,-125 77,-165 0,-73 -61,-101 -254,-101l-230 0 0 -616 2494 0 0 616 -330 0c-375,0 -447,57 -975,722l-1447 1563 0 951c0,242 125,330 476,330l548 0 0 592 -3498 0 0 -592 548 0c351,0 476,-88 476,-330l0 -951 -1705 -1886c-278,-326 -241,-399 -1023,-399l0 -616 3159 0 0 616 -226 0c-230,0 -326,41 -326,129 0,73 72,129 117,186l862 938c101,105 226,121 342,-12l0 0z"/>
 </g>
</svg>
