<?xml version="1.0" encoding="UTF-8"?>
<!DOCTYPE svg PUBLIC "-//W3C//DTD SVG 1.1//EN" "http://www.w3.org/Graphics/SVG/1.1/DTD/svg11.dtd">
<!-- Creator: CorelDRAW X8 -->
<svg xmlns="http://www.w3.org/2000/svg" xml:space="preserve" width="300mm" height="100mm" version="1.1" style="shape-rendering:geometricPrecision; text-rendering:geometricPrecision; image-rendering:optimizeQuality; fill-rule:evenodd; clip-rule:evenodd"
viewBox="0 0 30000 10000"
 xmlns:xlink="http://www.w3.org/1999/xlink">
 <defs>
  <style type="text/css">
   <![CDATA[
    .fil0 {fill:black}
   ]]>
  </style>
 </defs>
 <g id="Capa_x0020_1">
  <metadata id="CorelCorpID_0Corel-Layer"/>
  <path class="fil0" d="M435 1868l4000 0 0 744 -1574 0 0 4197 -864 0 0 -4197 -1566 0 4 -744zm3830 1365l737 0 0 691 11 0c27,-100 74,-193 139,-286 66,-92 147,-177 243,-250 93,-78 201,-135 317,-182 111,-46 231,-73 351,-73 92,0 158,8 189,8 34,4 73,11 108,11l0 756c-54,-11 -112,-19 -174,-23 -58,-7 -112,-15 -170,-15 -131,0 -258,27 -378,81 -116,50 -216,131 -308,227 -85,108 -159,232 -209,382 -54,155 -81,332 -81,529l0 1701 -790 0 15 -3557zm5717 3576l-780 0 0 -501 -11 0c-100,185 -243,324 -436,436 -189,111 -390,162 -586,162 -467,0 -810,-112 -1019,-348 -212,-231 -316,-586 -316,-1053l0 -2272 787 0 0 2191c0,317 62,540 185,668 120,131 289,196 509,196 162,0 301,-27 413,-81 112,-50 204,-115 270,-204 73,-85 120,-189 154,-309 31,-119 47,-250 47,-389l0 -2072 786 0 0 3576 -3 0zm1342 -1146c27,228 112,386 262,486 155,93 340,139 548,139 73,0 158,-7 251,-19 92,-15 185,-35 262,-66 89,-34 154,-81 204,-146 54,-66 81,-143 74,-243 -8,-100 -39,-185 -112,-251 -73,-65 -158,-112 -262,-158 -108,-39 -232,-73 -371,-100 -139,-23 -277,-58 -420,-89 -147,-35 -289,-73 -428,-120 -139,-46 -259,-108 -371,-192 -104,-78 -196,-178 -254,-301 -66,-128 -101,-270 -101,-455 0,-197 47,-355 147,-486 89,-136 216,-240 359,-317 146,-81 312,-139 490,-173 177,-31 347,-47 505,-47 185,0 363,20 528,62 166,39 324,96 456,189 138,85 250,204 335,343 93,139 143,309 170,506l-822 0c-38,-189 -127,-317 -258,-382 -139,-66 -289,-97 -467,-97 -54,0 -123,4 -197,12 -81,15 -146,27 -219,54 -66,27 -124,66 -170,112 -46,46 -73,112 -73,189 0,100 34,173 100,231 65,58 150,104 262,151 104,42 232,73 370,100 139,27 282,58 429,93 142,30 281,73 420,119 139,46 262,104 370,189 104,81 197,178 263,297 65,120 100,270 100,440 0,212 -46,389 -147,540 -100,147 -223,270 -374,363 -154,92 -332,158 -513,204 -193,42 -378,66 -563,66 -224,0 -432,-24 -625,-78 -189,-54 -362,-131 -501,-231 -139,-104 -251,-231 -328,-390 -81,-150 -124,-335 -131,-551l794 0 0 7 8 0zm2604 -2430l598 0 0 -1084 790 0 0 1077 710 0 0 586 -710 0 0 1909c0,85 8,151 12,216 8,62 27,112 46,155 27,38 66,69 112,92 54,19 120,31 212,31 54,0 112,0 166,-8 50,-4 112,-11 162,-23l0 610c-85,15 -170,19 -255,27 -84,15 -165,15 -258,15 -208,0 -374,-23 -501,-62 -124,-38 -224,-96 -294,-169 -73,-81 -119,-174 -146,-286 -27,-112 -39,-251 -46,-393l0 -2110 -598 0 0 -598 0 15zm2654 0l744 0 0 486 12 0c111,-212 266,-355 462,-447 197,-93 409,-139 645,-139 285,0 528,46 736,150 213,101 382,232 521,409 139,170 243,375 313,606 65,231 104,482 104,737 0,247 -35,474 -93,698 -65,224 -158,428 -285,602 -124,169 -282,308 -479,412 -196,108 -420,159 -686,159 -112,0 -232,-12 -344,-31 -111,-20 -223,-54 -327,-101 -105,-46 -205,-104 -290,-177 -92,-73 -166,-158 -223,-251l-16 0 0 1786 -787 0 0 -4899 -7 0zm2758 1790c0,-158 -20,-316 -66,-467 -39,-154 -104,-285 -189,-401 -85,-119 -193,-212 -313,-285 -123,-73 -270,-104 -428,-104 -328,0 -578,112 -748,343 -166,228 -251,540 -251,922 0,185 20,347 66,497 46,155 104,286 197,398 84,112 192,196 316,262 127,66 262,100 428,100 185,0 332,-38 455,-112 124,-73 224,-173 309,-285 81,-116 139,-247 173,-401 31,-158 51,-309 51,-467zm1392 -3155l791 0 0 744 -791 0 0 -744zm0 1365l791 0 0 3576 -791 0 0 -3576zm1493 -1365l791 0 0 4941 -791 0 0 -4941zm3201 5038c-281,0 -540,-47 -763,-143 -224,-100 -409,-224 -567,-390 -151,-166 -270,-370 -348,-598 -81,-231 -127,-490 -127,-760 0,-270 43,-520 127,-748 78,-231 197,-428 348,-602 154,-162 343,-297 567,-389 223,-89 482,-143 763,-143 286,0 540,46 764,143 224,92 409,227 567,389 151,166 270,371 351,602 77,228 124,478 124,748 0,278 -39,529 -124,760 -88,228 -200,428 -351,598 -150,166 -343,297 -567,390 -224,92 -474,143 -764,143zm0 -625c174,0 332,-39 456,-112 131,-74 231,-170 316,-290 85,-119 146,-258 185,-401 39,-150 58,-304 58,-463 0,-150 -19,-300 -58,-455 -39,-150 -100,-281 -185,-401 -85,-116 -193,-208 -316,-281 -132,-74 -282,-112 -456,-112 -169,0 -327,38 -455,112 -131,73 -227,169 -316,281 -85,120 -143,251 -181,401 -43,155 -62,305 -62,455 0,159 19,313 62,463 38,151 96,282 181,401 89,120 193,216 316,290 131,81 286,112 455,112zm2045 -3048l598 0 0 -1084 790 0 0 1077 710 0 0 586 -710 0 0 1909c0,85 8,151 12,216 8,62 27,112 46,155 27,38 66,69 112,92 54,19 120,31 212,31 54,0 112,0 166,-8 50,-4 112,-11 162,-23l0 610c-85,15 -169,19 -254,27 -89,15 -166,15 -259,15 -212,0 -374,-23 -501,-62 -124,-38 -224,-96 -297,-169 -70,-81 -116,-174 -143,-286 -27,-112 -39,-251 -46,-393l0 -2110 -598 0 0 -598 0 15z"/>
 </g>
</svg>
