<?xml version="1.0" encoding="UTF-8"?>
<!DOCTYPE svg PUBLIC "-//W3C//DTD SVG 1.1//EN" "http://www.w3.org/Graphics/SVG/1.1/DTD/svg11.dtd">
<!-- Creator: CorelDRAW X8 -->
<svg xmlns="http://www.w3.org/2000/svg" xml:space="preserve" width="300mm" height="100mm" version="1.1" style="shape-rendering:geometricPrecision; text-rendering:geometricPrecision; image-rendering:optimizeQuality; fill-rule:evenodd; clip-rule:evenodd"
viewBox="0 0 30000 10000"
 xmlns:xlink="http://www.w3.org/1999/xlink">
 <defs>
  <style type="text/css">
   <![CDATA[
    .fil0 {fill:#010202}
   ]]>
  </style>
 </defs>
 <g id="Capa_x0020_1">
  <metadata id="CorelCorpID_0Corel-Layer"/>
  <path class="fil0" d="M4117 6830c102,275 247,511 433,708 183,193 401,345 651,447 254,105 528,158 824,158 285,0 556,-56 809,-162 250,-109 472,-260 659,-457 186,-194 334,-430 436,-701 106,-271 158,-577 158,-911l0 -5181 1257 0 0 8394 -1246 0 0 -778c-278,296 -609,521 -989,683 -380,158 -788,239 -1228,239 -447,0 -866,-77 -1253,-232 -387,-158 -725,-380 -1010,-669 -282,-285 -507,-633 -669,-1034 -166,-405 -247,-856 -247,-1352l0 -5251 1260 0 0 5181c0,334 50,640 155,918zm7399 -6099l0 3058c281,-281 605,-503 971,-665 370,-165 767,-246 1200,-246 447,0 866,84 1260,250 391,169 732,397 1017,686 289,285 518,626 687,1017 165,394 250,810 250,1250 0,439 -85,851 -250,1238 -169,388 -398,725 -687,1014 -285,289 -626,517 -1017,683 -394,169 -813,253 -1260,253 -433,0 -834,-81 -1207,-246 -370,-162 -697,-384 -975,-665l0 767 -1200 0 0 -8394 1211 0zm137 6177c109,253 260,478 450,672 194,190 416,341 673,454 257,113 531,169 827,169 288,0 559,-56 816,-169 254,-113 475,-264 665,-454 187,-194 338,-419 451,-672 109,-257 165,-532 165,-827 0,-296 -56,-574 -165,-835 -113,-260 -264,-485 -451,-679 -190,-190 -411,-341 -665,-447 -257,-109 -528,-162 -816,-162 -289,0 -560,53 -817,162 -253,106 -479,257 -669,447 -193,194 -344,419 -457,679 -113,261 -169,539 -169,835 0,295 56,570 162,827l0 0zm5930 -2063c162,-383 381,-721 662,-1014 278,-292 609,-520 993,-689 387,-169 802,-254 1249,-254 440,0 848,81 1221,240 377,161 701,383 972,668 274,282 486,620 637,1007 151,387 229,809 229,1263l0 398 -4977 0c39,247 120,475 239,690 120,211 268,394 451,549 179,158 383,278 609,366 228,88 471,134 728,134 725,0 1313,-299 1760,-901l876 647c-302,409 -679,729 -1126,961 -447,233 -950,349 -1510,349 -457,0 -883,-81 -1277,-243 -398,-158 -740,-384 -1032,-669 -292,-288 -524,-626 -690,-1013 -168,-388 -253,-810 -253,-1268 0,-429 81,-837 239,-1221zm1686 -475c-341,285 -566,662 -675,1133l3727 0c-102,-471 -324,-848 -665,-1133 -338,-285 -736,-426 -1194,-426 -454,0 -851,141 -1193,426zm6543 137c-257,282 -383,662 -383,1141l0 3477 -1211 0 0 -6117 1197 0 0 757c151,-247 352,-444 594,-588 243,-144 535,-215 870,-215l419 0 0 1126 -504 0c-397,0 -728,141 -982,419l0 0z"/>
 </g>
</svg>
