<?xml version="1.0" encoding="UTF-8"?>
<!DOCTYPE svg PUBLIC "-//W3C//DTD SVG 1.1//EN" "http://www.w3.org/Graphics/SVG/1.1/DTD/svg11.dtd">
<!-- Creator: CorelDRAW X8 -->
<svg xmlns="http://www.w3.org/2000/svg" xml:space="preserve" width="300mm" height="125mm" version="1.1" style="shape-rendering:geometricPrecision; text-rendering:geometricPrecision; image-rendering:optimizeQuality; fill-rule:evenodd; clip-rule:evenodd"
viewBox="0 0 30000 12500"
 xmlns:xlink="http://www.w3.org/1999/xlink">
 <defs>
  <style type="text/css">
   <![CDATA[
    .str0 {stroke:black;stroke-width:7.62}
    .fil2 {fill:black;fill-rule:nonzero}
    .fil1 {fill:white;fill-rule:nonzero}
    .fil0 {fill:white;fill-rule:nonzero}
   ]]>
  </style>
 </defs>
 <g id="Capa_x0020_1">
  <metadata id="CorelCorpID_0Corel-Layer"/>
  <polygon class="fil0" points="15000,2306 14561,4352 12514,4792 14561,5231 15000,7278 15439,5231 17486,4792 15439,4352 "/>
  <path class="fil1" d="M2525 55622c-2,667 216,1339 667,1898 1044,1291 2941,1492 4232,449 746,-603 1128,-1490 1117,-2381l4352 1635 -7054 2650 -261 98 -261 -98 -7054 -2650 4262 -1601z"/>
  <polygon class="fil1" points="5533,53217 5107,55202 3122,55628 5107,56055 5533,58040 5959,56055 7944,55628 5959,55202 "/>
  <g id="_2306760709072">
   <path class="fil2 str0" d="M2571 6946l1197 450 10360 3892c562,211 1182,211 1744,0l10360 -3892 1197 -450 1852 -696 -1852 -696 -1197 -450 -10360 -3892c-562,-211 -1182,-211 -1744,0l-10360 3892 -1197 450 -1852 696 1852 696zm14324 49c844,-682 1223,-1726 1096,-2729l403 152 4877 1832 -7976 2997 -295 110 -295 -110 -7976 -2997 4877 -1832 403 -152c-100,788 108,1613 645,2278 1046,1295 2947,1497 4241,451z"/>
   <polygon class="fil0 str0" points="15000,2232 14573,4222 12583,4649 14573,5076 15000,7066 15427,5076 17417,4649 15427,4222 "/>
  </g>
 </g>
</svg>
