<?xml version="1.0" encoding="UTF-8"?>
<!DOCTYPE svg PUBLIC "-//W3C//DTD SVG 1.1//EN" "http://www.w3.org/Graphics/SVG/1.1/DTD/svg11.dtd">
<!-- Creator: CorelDRAW X8 -->
<svg xmlns="http://www.w3.org/2000/svg" xml:space="preserve" width="300mm" height="106mm" version="1.1" style="shape-rendering:geometricPrecision; text-rendering:geometricPrecision; image-rendering:optimizeQuality; fill-rule:evenodd; clip-rule:evenodd"
viewBox="0 0 30000 10600"
 xmlns:xlink="http://www.w3.org/1999/xlink">
 <defs>
  <style type="text/css">
   <![CDATA[
    .fil1 {fill:white}
    .fil0 {fill:black;fill-rule:nonzero}
   ]]>
  </style>
 </defs>
 <g id="Capa_x0020_1">
  <metadata id="CorelCorpID_0Corel-Layer"/>
  <path class="fil0" d="M2600 5994l1194 449c3445,1294 6891,2589 10336,3883 561,211 1179,211 1740,0 3445,-1294 6891,-2588 10337,-3883 397,-150 795,-299 1193,-449 616,-231 1233,-462 1849,-694l-1849 -694 -1193 -449c-3446,-1294 -6892,-2589 -10337,-3883 -561,-211 -1179,-211 -1740,0 -3445,1294 -6891,2589 -10336,3883 -398,150 -796,299 -1194,449 -616,231 -1232,463 -1849,694l1849 694zm12355 -4700l-426 1985 -1985 426 1985 427 426 1985 426 -1985 1985 -427 -1988 -439 -423 -1972zm-3008 2405c-2,667 216,1339 667,1898 1044,1291 2941,1492 4232,449 746,-603 1128,-1490 1117,-2381l4352 1635 -7054 2650 -261 98 -261 -98 -7054 -2650 4262 -1601z"/>
  <polygon class="fil1" points="14955,1294 15378,3266 17366,3705 15381,4132 14955,6117 14529,4132 12544,3705 14529,3279 "/>
 </g>
</svg>
