<?xml version="1.0" encoding="UTF-8"?>
<!DOCTYPE svg PUBLIC "-//W3C//DTD SVG 1.1//EN" "http://www.w3.org/Graphics/SVG/1.1/DTD/svg11.dtd">
<!-- Creator: CorelDRAW X8 -->
<svg xmlns="http://www.w3.org/2000/svg" xml:space="preserve" width="210mm" height="42mm" version="1.1" style="shape-rendering:geometricPrecision; text-rendering:geometricPrecision; image-rendering:optimizeQuality; fill-rule:evenodd; clip-rule:evenodd"
viewBox="0 0 21000 4200"
 xmlns:xlink="http://www.w3.org/1999/xlink">
 <defs>
  <style type="text/css">
   <![CDATA[
    .str0 {stroke:black;stroke-width:7.62}
    .fil0 {fill:black;fill-rule:nonzero}
   ]]>
  </style>
 </defs>
 <g id="Capa_x0020_1">
  <metadata id="CorelCorpID_0Corel-Layer"/>
  <path class="fil0 str0" d="M1100 3330l210 -765 923 0 209 765 809 0 0 -9 -958 -3193 -996 0 -957 3193 0 9 760 0zm378 -1451l292 -1032 4 0 292 1032 -588 0zm2024 781c0,483 241,716 727,716 323,0 535,-106 641,-310l4 0 0 264 677 0 0 -2097 -689 0c0,387 0,774 0,1161 0,226 -122,343 -358,343 -212,0 -314,-97 -314,-301 0,-401 0,-803 0,-1204l-688 0 0 1428zm3283 717c272,0 490,-85 608,-235l4 0 0 188 676 0 0 -3046 -688 0 0 1139 -4 0c-102,-148 -326,-237 -594,-237 -594,0 -921,385 -921,1089 0,714 325,1102 919,1102zm195 -558c-272,0 -414,-188 -414,-546 0,-359 140,-541 414,-541 281,0 425,183 425,541 0,356 -148,546 -425,546zm3332 511l403 0 0 -550c-35,0 -71,0 -106,0 -99,0 -135,-36 -135,-133 0,-244 0,-489 0,-733 0,-529 -273,-728 -993,-728 -655,0 -996,194 -1077,615l685 134c32,-164 137,-231 359,-231 239,0 338,69 338,237 0,11 0,21 0,32 -233,36 -466,72 -699,109 -495,77 -716,276 -716,658 0,411 278,636 748,636 358,0 594,-120 712,-327l4 0c42,193 188,281 477,281zm-1243 -649c0,-127 68,-188 258,-218 153,-24 306,-48 459,-73 0,37 0,74 0,111 0,260 -164,386 -435,386 -181,0 -282,-73 -282,-208l0 2zm2985 695c643,0 1076,-319 1188,-876l-684 -158c-49,300 -217,450 -500,450 -303,0 -457,-176 -457,-515 0,-334 162,-518 457,-518 245,0 401,126 445,361l688 -150c-97,-492 -520,-784 -1131,-784 -728,0 -1166,407 -1166,1087 0,689 434,1103 1160,1103zm1363 -47l2318 0 0 -576 -736 0 0 -1520 -1380 0 0 542 692 0 0 978 -894 0 0 576zm748 -2404l799 0 0 -641 -799 0 0 641zm1955 1658c0,536 291,793 894,793 546,0 890,-223 1024,-671l-613 -217c-65,229 -162,320 -340,320 -190,0 -277,-93 -277,-303 0,-243 0,-486 0,-730l1084 0 0 -542 -1084 0 0 -690 -688 0 0 690 -548 0 0 542 548 0 0 808zm2908 1489c422,0 604,-140 750,-524 293,-770 587,-1538 882,-2307l0 -8 -732 0 -451 1301 -4 0 -512 -1301 -761 0 0 8c291,675 583,1351 874,2026 30,69 36,113 18,158 -21,52 -73,75 -164,75 -149,0 -298,0 -447,0l0 572 547 0z"/>
 </g>
</svg>
